<?xml version="1.0" encoding="utf-8"?>
<!DOCTYPE svg PUBLIC "-//W3C//DTD SVG 1.1//EN" "http://www.w3.org/Graphics/SVG/1.1/DTD/svg11.dtd">
<svg version="1.1" id="Layer_1" xmlns="http://www.w3.org/2000/svg" xmlns:xlink="http://www.w3.org/1999/xlink" x="0px" y="0px"
	 width="256px" height="256px" viewBox="0 0 256 256" enable-background="new 0 0 256 256" xml:space="preserve">
<path fill="#5C9BBB" d="M223.95,49.63l-73.761,73.77L119.08,92.29l-14.15-14.14L90.79,92.29l-78.93,78.931
	C6.86,157.76,4.12,143.2,4.12,128C4.12,59.58,59.58,4.12,128,4.12C166.689,4.12,201.23,21.85,223.95,49.63z"/>
<path fill="#335A6F" d="M251.88,128c0,68.42-55.46,123.88-123.88,123.88c-38.38,0-72.67-17.45-95.38-44.84l23.96-23.96l42.96-42.971
	l5.39-5.391l31.12,31.109l14.142,14.141l94.271-94.271C249.27,98.9,251.88,113.14,251.88,128z"/>
<path fill="#FFEC00" d="M235.5,66.38l-85.311,85.312l-45.259-45.259L20.96,190.4c-3.56-6.08-6.61-12.49-9.1-19.183l78.93-78.93
	l14.14-14.14l14.15,14.14l31.109,31.11l73.761-73.77C228.24,54.87,232.1,60.47,235.5,66.38z"/>
<path fill="#DEB60E" d="M244.471,85.69l-80.141,80.14l-14.141,14.141l-14.142-14.141l-31.12-31.109l-5.39,5.391l-42.96,42.971
	l-23.97,23.971c-4.32-5.211-8.22-10.771-11.65-16.648l83.97-83.97l45.26,45.259L235.5,66.38
	C239.01,72.5,242.029,78.96,244.471,85.69z"/>
</svg>
