<?xml version="1.0" encoding="utf-8"?>
<!-- Generator: Adobe Illustrator 16.0.3, SVG Export Plug-In . SVG Version: 6.00 Build 0)  -->
<!DOCTYPE svg PUBLIC "-//W3C//DTD SVG 1.1//EN" "http://www.w3.org/Graphics/SVG/1.1/DTD/svg11.dtd">
<svg version="1.1" id="Layer_1" xmlns="http://www.w3.org/2000/svg" xmlns:xlink="http://www.w3.org/1999/xlink" x="0px" y="0px"
	 width="256px" height="256px" viewBox="0 0 256 256" enable-background="new 0 0 256 256" xml:space="preserve">
<g id="Dark_Blue">
	<path fill="#1DA1F2" d="M127,0C56.31,0-1,57.31-1,128c0,70.69,57.31,128,128,128c70.69,0,128-57.31,128-128
		C255,57.31,197.69,0,127,0z M191.32,103.74c0.06,1.28,0.06,2.63,0.06,3.97c0,40.771-31.04,87.81-87.8,87.81
		c-17.41,0-33.67-5.119-47.17-13.949c2.43,0.319,4.86,0.449,7.36,0.449c14.46,0,27.77-4.93,38.33-13.189
		c-13.5-0.25-24.89-9.15-28.8-21.44c1.92,0.391,3.84,0.58,5.83,0.58c2.81,0,5.57-0.39,8.13-1.09c-14.15-2.88-24.77-15.3-24.77-30.27
		v-0.39c4.16,2.31,8.89,3.72,13.95,3.84c-8.32-5.5-13.76-14.97-13.76-25.66c0-5.63,1.54-10.94,4.16-15.49
		c15.23,18.69,37.95,30.98,63.62,32.26c-0.58-2.24-0.84-4.61-0.84-7.04c0-17.03,13.83-30.85,30.85-30.85c8.9,0,16.9,3.71,22.53,9.73
		c7.04-1.41,13.63-3.97,19.58-7.49c-2.3,7.23-7.16,13.25-13.561,17.09c6.271-0.77,12.221-2.43,17.721-4.87
		C202.58,93.95,197.34,99.39,191.32,103.74z"/>
</g>
<g id="Logo__x2014__FIXED">
	<path fill="#FFFFFF" d="M191.32,103.74c0.06,1.28,0.06,2.63,0.06,3.97c0,40.771-31.04,87.81-87.8,87.81
		c-17.41,0-33.67-5.119-47.17-13.949c2.43,0.319,4.86,0.449,7.36,0.449c14.46,0,27.77-4.93,38.33-13.189
		c-13.5-0.25-24.89-9.15-28.8-21.44c1.92,0.391,3.84,0.58,5.83,0.58c2.81,0,5.57-0.39,8.13-1.09c-14.15-2.88-24.77-15.3-24.77-30.27
		v-0.39c4.16,2.31,8.89,3.72,13.95,3.84c-8.32-5.5-13.76-14.97-13.76-25.66c0-5.63,1.54-10.94,4.16-15.49
		c15.23,18.69,37.95,30.98,63.62,32.26c-0.58-2.24-0.84-4.61-0.84-7.04c0-17.03,13.83-30.85,30.85-30.85c8.9,0,16.9,3.71,22.53,9.73
		c7.04-1.41,13.63-3.97,19.58-7.49c-2.3,7.23-7.16,13.25-13.561,17.09c6.271-0.77,12.221-2.43,17.721-4.87
		C202.58,93.95,197.34,99.39,191.32,103.74z"/>
</g>
</svg>
