<?xml version="1.0" encoding="utf-8"?>
<!DOCTYPE svg PUBLIC "-//W3C//DTD SVG 1.1//EN" "http://www.w3.org/Graphics/SVG/1.1/DTD/svg11.dtd">
<svg version="1.1" id="livetype" xmlns="http://www.w3.org/2000/svg" xmlns:xlink="http://www.w3.org/1999/xlink" x="0px" y="0px"
	 width="119.664px" height="40px" viewBox="0 0 119.664 40" enable-background="new 0 0 119.664 40" xml:space="preserve">
<g>
	<path fill="#A6A6A6" d="M110.135,0H9.535C9.168,0,8.806,0,8.44,0.002C8.134,0.004,7.83,0.01,7.521,0.015
		C6.85,0.022,6.18,0.082,5.517,0.191C4.855,0.304,4.215,0.515,3.616,0.818C3.019,1.125,2.472,1.522,1.998,1.997
		C1.521,2.471,1.123,3.018,0.819,3.618C0.516,4.217,0.305,4.859,0.194,5.521C0.083,6.183,0.023,6.853,0.015,7.523
		C0.006,7.83,0.005,8.138,0,8.444v23.114c0.005,0.311,0.006,0.611,0.015,0.922c0.008,0.671,0.068,1.34,0.179,2.002
		c0.11,0.663,0.321,1.305,0.625,1.904c0.303,0.598,0.701,1.144,1.178,1.614c0.473,0.478,1.02,0.875,1.619,1.179
		c0.599,0.305,1.239,0.518,1.901,0.631c0.663,0.109,1.333,0.168,2.004,0.177c0.309,0.007,0.613,0.011,0.919,0.011
		C8.806,40,9.168,40,9.535,40h100.6c0.359,0,0.725,0,1.084-0.002c0.305,0,0.617-0.004,0.922-0.011c0.67-0.009,1.339-0.067,2-0.177
		c0.664-0.115,1.307-0.327,1.908-0.631c0.599-0.304,1.145-0.701,1.617-1.179c0.477-0.473,0.875-1.018,1.182-1.614
		c0.302-0.6,0.511-1.242,0.619-1.904c0.111-0.662,0.174-1.331,0.186-2.002c0.004-0.311,0.004-0.611,0.004-0.922
		c0.008-0.363,0.008-0.725,0.008-1.094V9.536c0-0.366,0-0.729-0.008-1.092c0-0.307,0-0.614-0.004-0.921
		c-0.012-0.671-0.074-1.34-0.186-2.002c-0.109-0.662-0.317-1.304-0.619-1.903c-0.617-1.203-1.596-2.182-2.799-2.8
		c-0.602-0.303-1.244-0.514-1.908-0.627c-0.661-0.11-1.33-0.169-2-0.177c-0.305-0.005-0.617-0.011-0.922-0.013
		C110.859,0,110.494,0,110.135,0L110.135,0z"/>
	<path d="M8.445,39.125c-0.305,0-0.602-0.004-0.904-0.011c-0.626-0.009-1.251-0.063-1.869-0.163c-0.576-0.1-1.135-0.283-1.657-0.548
		c-0.517-0.262-0.989-0.604-1.397-1.017c-0.414-0.406-0.759-0.879-1.021-1.396c-0.265-0.521-0.448-1.08-0.543-1.657
		c-0.103-0.62-0.159-1.247-0.167-1.875c-0.006-0.211-0.015-0.913-0.015-0.913V8.444c0,0,0.009-0.691,0.015-0.895
		c0.008-0.627,0.063-1.253,0.166-1.872c0.095-0.579,0.279-1.139,0.543-1.662C1.857,3.498,2.2,3.026,2.612,2.618
		c0.411-0.412,0.884-0.757,1.402-1.022c0.521-0.263,1.078-0.446,1.653-0.544c0.62-0.102,1.247-0.156,1.875-0.164l0.902-0.012
		h102.769l0.913,0.013c0.623,0.007,1.244,0.062,1.858,0.163c0.581,0.099,1.144,0.283,1.671,0.548
		c1.037,0.535,1.883,1.381,2.415,2.42c0.261,0.52,0.44,1.075,0.535,1.649c0.104,0.624,0.162,1.255,0.174,1.887
		c0.003,0.283,0.003,0.587,0.003,0.89c0.008,0.375,0.008,0.732,0.008,1.092v20.929c0,0.363,0,0.718-0.008,1.075
		c0,0.325,0,0.623-0.004,0.93c-0.012,0.621-0.068,1.241-0.171,1.854c-0.093,0.581-0.275,1.144-0.54,1.67
		c-0.264,0.513-0.606,0.979-1.016,1.386c-0.408,0.414-0.881,0.76-1.399,1.022c-0.525,0.267-1.087,0.451-1.668,0.55
		c-0.618,0.102-1.243,0.156-1.869,0.163c-0.293,0.007-0.6,0.011-0.897,0.011l-1.084,0.002L8.445,39.125z"/>
</g>
<image display="none" overflow="visible" width="119" height="119" xlink:href="ED477327.jpg"  transform="matrix(1 0 0 1 0.332 -39.5)">
</image>
<g>
	<circle fill="none" stroke="#FFFFFF" stroke-width="1.7857" stroke-miterlimit="10" cx="21.207" cy="20" r="12.5"/>
	<ellipse fill="none" stroke="#FFFFFF" stroke-width="1.7857" stroke-miterlimit="10" cx="21.207" cy="20" rx="6.25" ry="12.5"/>
	
		<line fill="none" stroke="#FFFFFF" stroke-width="1.7857" stroke-miterlimit="10" x1="21.207" y1="7.552" x2="21.207" y2="32.448"/>
	<line fill="none" stroke="#FFFFFF" stroke-width="1.7857" stroke-miterlimit="10" x1="8.707" y1="20" x2="33.707" y2="20"/>
</g>
<image overflow="visible" width="207" height="50" xlink:href="ED477325.jpg"  transform="matrix(0.3521 0 0 0.3521 39.9434 11.1968)">
</image>
</svg>
