<?xml version="1.0" encoding="utf-8"?>
<!DOCTYPE svg PUBLIC "-//W3C//DTD SVG 1.1//EN" "http://www.w3.org/Graphics/SVG/1.1/DTD/svg11.dtd">
<svg version="1.1" id="Layer_1" xmlns="http://www.w3.org/2000/svg" xmlns:xlink="http://www.w3.org/1999/xlink" x="0px" y="0px"
	 width="180px" height="120px" viewBox="38 68 180 120" enable-background="new 38 68 180 120" xml:space="preserve">
<polygon fill="#5C9BBB" points="104.93,78.15 119.08,92.29 150.189,123.4 205.582,68 38,68 38,145.08 90.79,92.29 "/>
<polygon fill="#335A6F" points="218,112.16 150.191,179.968 136.05,165.827 104.93,134.718 99.54,140.109 56.58,183.08 51.66,188 
	218,188 "/>
<polygon fill="#FFEC00" points="150.189,151.691 218,83.88 218,68 205.579,68 150.189,123.397 119.08,92.287 104.93,78.147 
	90.79,92.287 38,145.077 38,173.361 104.93,106.433 "/>
<polygon fill="#DEB60E" points="99.537,140.111 104.927,134.721 136.047,165.83 150.189,179.971 164.33,165.83 218,112.161 
	218,83.88 150.188,151.695 104.927,106.436 38,173.363 38,188 51.661,188 56.577,183.083 "/>
</svg>
