<?xml version="1.0" encoding="utf-8"?>
<!DOCTYPE svg PUBLIC "-//W3C//DTD SVG 1.1//EN" "http://www.w3.org/Graphics/SVG/1.1/DTD/svg11.dtd">
<svg version="1.1" id="Layer_1" xmlns="http://www.w3.org/2000/svg" xmlns:xlink="http://www.w3.org/1999/xlink" x="0px" y="0px"
	 width="2732px" height="2732px" viewBox="-1238 -1238 2732 2732" enable-background="new -1238 -1238 2732 2732"
	 xml:space="preserve">
<path fill="#5C9BBB" d="M1494.039-1121.768L276.049,96.255L62.803-116.988l-96.981-96.924l-96.928,96.921L-1237.96,989.86v-0.006
	l0-2227.854H1494L1494.039-1121.768z"/>
<path fill="#335A6F" d="M1494.039-733.971V1494h-2732l-0.079-116.232l0,0l872.441-872.445l294.468-294.534l36.951-36.951
	l213.309,213.232l96.94,96.938L1494.039-733.971L1494.039-733.971z"/>
<path fill="#FFEC00" d="M1494.039-927.812L276.049,290.178L-34.178-20.041l-1203.782,1203.77l0-193.874L-131.106-117.012
	l96.928-96.926l96.98,96.926L276.049,96.23l1217.99-1217.998V-927.812z"/>
<path fill="#DEB60E" d="M1494.039-733.971L372.981,387.097l-96.933,96.929l-96.945-96.929L-34.212,173.854l-36.944,36.948
	l-294.467,294.544l-872.416,872.421l0.079-194.039L-34.209-20.023l310.244,310.227L1494.039-927.812V-733.971z"/>
</svg>
